<svg width="195" height="32" viewBox="0 0 195 32" fill="none" xmlns="http://www.w3.org/2000/svg">
<path d="M35.144 21.192C34.1947 21.192 33.4053 20.952 32.776 20.472C32.1467 19.992 31.7787 19.3413 31.672 18.52H33.048C33.1333 18.936 33.352 19.2987 33.704 19.608C34.0667 19.9067 34.552 20.056 35.16 20.056C35.7253 20.056 36.1413 19.9387 36.408 19.704C36.6747 19.4587 36.808 19.1707 36.808 18.84C36.808 18.36 36.632 18.04 36.28 17.88C35.9387 17.72 35.4533 17.576 34.824 17.448C34.3973 17.3627 33.9707 17.24 33.544 17.08C33.1173 16.92 32.76 16.696 32.472 16.408C32.184 16.1093 32.04 15.72 32.04 15.24C32.04 14.5467 32.296 13.9813 32.808 13.544C33.3307 13.096 34.0347 12.872 34.92 12.872C35.7627 12.872 36.4507 13.0853 36.984 13.512C37.528 13.928 37.8427 14.5253 37.928 15.304H36.6C36.5467 14.8987 36.3707 14.584 36.072 14.36C35.784 14.1253 35.3947 14.008 34.904 14.008C34.424 14.008 34.0507 14.1093 33.784 14.312C33.528 14.5147 33.4 14.7813 33.4 15.112C33.4 15.432 33.5653 15.6827 33.896 15.864C34.2373 16.0453 34.696 16.2 35.272 16.328C35.7627 16.4347 36.2267 16.568 36.664 16.728C37.112 16.8773 37.4747 17.1067 37.752 17.416C38.04 17.7147 38.184 18.152 38.184 18.728C38.1947 19.4427 37.9227 20.0347 37.368 20.504C36.824 20.9627 36.0827 21.192 35.144 21.192ZM43 21.192C42.0613 21.192 41.3147 20.9093 40.76 20.344C40.2053 19.768 39.928 18.888 39.928 17.704V13.064H41.272V17.56C41.272 19.2133 41.9493 20.04 43.304 20.04C43.9973 20.04 44.568 19.7947 45.016 19.304C45.4747 18.8027 45.704 18.0933 45.704 17.176V13.064H47.048V21H45.832L45.736 19.576C45.4907 20.0773 45.1227 20.472 44.632 20.76C44.152 21.048 43.608 21.192 43 21.192ZM49.2603 24.52V13.064H50.4763L50.6043 14.376C50.8603 13.992 51.2229 13.6453 51.6923 13.336C52.1723 13.0267 52.7803 12.872 53.5163 12.872C54.3056 12.872 54.9936 13.0533 55.5803 13.416C56.1669 13.7787 56.6203 14.2747 56.9403 14.904C57.2709 15.5333 57.4363 16.248 57.4363 17.048C57.4363 17.848 57.2709 18.5627 56.9403 19.192C56.6203 19.8107 56.1616 20.3013 55.5643 20.664C54.9776 21.016 54.2896 21.192 53.5003 21.192C52.8496 21.192 52.2683 21.0587 51.7563 20.792C51.2549 20.5253 50.8709 20.152 50.6043 19.672V24.52H49.2603ZM53.3563 20.024C53.8896 20.024 54.3589 19.9013 54.7643 19.656C55.1696 19.4 55.4896 19.048 55.7243 18.6C55.9589 18.152 56.0763 17.6293 56.0763 17.032C56.0763 16.4347 55.9589 15.912 55.7243 15.464C55.4896 15.016 55.1696 14.6693 54.7643 14.424C54.3589 14.168 53.8896 14.04 53.3563 14.04C52.8229 14.04 52.3536 14.168 51.9483 14.424C51.5429 14.6693 51.2229 15.016 50.9883 15.464C50.7536 15.912 50.6363 16.4347 50.6363 17.032C50.6363 17.6293 50.7536 18.152 50.9883 18.6C51.2229 19.048 51.5429 19.4 51.9483 19.656C52.3536 19.9013 52.8229 20.024 53.3563 20.024ZM59.3071 24.52V13.064H60.5231L60.6511 14.376C60.9071 13.992 61.2698 13.6453 61.7391 13.336C62.2191 13.0267 62.8271 12.872 63.5631 12.872C64.3525 12.872 65.0405 13.0533 65.6271 13.416C66.2138 13.7787 66.6671 14.2747 66.9871 14.904C67.3178 15.5333 67.4831 16.248 67.4831 17.048C67.4831 17.848 67.3178 18.5627 66.9871 19.192C66.6671 19.8107 66.2085 20.3013 65.6111 20.664C65.0245 21.016 64.3365 21.192 63.5471 21.192C62.8965 21.192 62.3151 21.0587 61.8031 20.792C61.3018 20.5253 60.9178 20.152 60.6511 19.672V24.52H59.3071ZM63.4031 20.024C63.9365 20.024 64.4058 19.9013 64.8111 19.656C65.2165 19.4 65.5365 19.048 65.7711 18.6C66.0058 18.152 66.1231 17.6293 66.1231 17.032C66.1231 16.4347 66.0058 15.912 65.7711 15.464C65.5365 15.016 65.2165 14.6693 64.8111 14.424C64.4058 14.168 63.9365 14.04 63.4031 14.04C62.8698 14.04 62.4005 14.168 61.9951 14.424C61.5898 14.6693 61.2698 15.016 61.0351 15.464C60.8005 15.912 60.6831 16.4347 60.6831 17.032C60.6831 17.6293 60.8005 18.152 61.0351 18.6C61.2698 19.048 61.5898 19.4 61.9951 19.656C62.4005 19.9013 62.8698 20.024 63.4031 20.024ZM72.97 21.192C72.2233 21.192 71.5513 21.0213 70.954 20.68C70.3567 20.3387 69.882 19.8587 69.53 19.24C69.1887 18.6107 69.018 17.8747 69.018 17.032C69.018 16.1893 69.194 15.4587 69.546 14.84C69.898 14.2107 70.3727 13.7253 70.97 13.384C71.578 13.0427 72.2553 12.872 73.002 12.872C73.7487 12.872 74.4207 13.0427 75.018 13.384C75.6153 13.7253 76.0847 14.2107 76.426 14.84C76.778 15.4587 76.954 16.1893 76.954 17.032C76.954 17.8747 76.778 18.6107 76.426 19.24C76.074 19.8587 75.594 20.3387 74.986 20.68C74.3887 21.0213 73.7167 21.192 72.97 21.192ZM72.97 20.04C73.4287 20.04 73.8553 19.928 74.25 19.704C74.6447 19.48 74.9647 19.144 75.21 18.696C75.4553 18.248 75.578 17.6933 75.578 17.032C75.578 16.3707 75.4553 15.816 75.21 15.368C74.9753 14.92 74.6607 14.584 74.266 14.36C73.8713 14.136 73.45 14.024 73.002 14.024C72.5433 14.024 72.1167 14.136 71.722 14.36C71.3273 14.584 71.0073 14.92 70.762 15.368C70.5167 15.816 70.394 16.3707 70.394 17.032C70.394 17.6933 70.5167 18.248 70.762 18.696C71.0073 19.144 71.322 19.48 71.706 19.704C72.1007 19.928 72.522 20.04 72.97 20.04ZM78.8228 21V13.064H80.0388L80.1508 14.584C80.3961 14.0613 80.7694 13.6453 81.2708 13.336C81.7721 13.0267 82.3908 12.872 83.1268 12.872V14.28H82.7588C82.2894 14.28 81.8574 14.3653 81.4628 14.536C81.0681 14.696 80.7534 14.9733 80.5188 15.368C80.2841 15.7627 80.1668 16.3067 80.1668 17V21H78.8228ZM87.7713 21C87.0459 21 86.4753 20.824 86.0593 20.472C85.6433 20.12 85.4353 19.4853 85.4353 18.568V14.2H84.0592V13.064H85.4353L85.6113 11.16H86.7793V13.064H89.1153V14.2H86.7793V18.568C86.7793 19.0693 86.8806 19.4107 87.0833 19.592C87.2859 19.7627 87.6433 19.848 88.1553 19.848H88.9873V21H87.7713ZM96.6308 24.184C95.4894 24.184 94.4868 23.9653 93.6228 23.528C92.7694 23.0907 92.1028 22.472 91.6228 21.672C91.1534 20.872 90.9188 19.9227 90.9188 18.824C90.9188 17.6933 91.1161 16.6373 91.5108 15.656C91.9054 14.6747 92.4601 13.816 93.1748 13.08C93.8894 12.344 94.7321 11.7733 95.7028 11.368C96.6734 10.9627 97.7401 10.76 98.9028 10.76C100.087 10.76 101.116 10.9893 101.991 11.448C102.865 11.896 103.537 12.5253 104.007 13.336C104.487 14.136 104.727 15.0693 104.727 16.136C104.727 16.744 104.652 17.3467 104.503 17.944C104.353 18.5307 104.129 19.064 103.831 19.544C103.543 20.0133 103.185 20.392 102.759 20.68C102.343 20.9573 101.863 21.096 101.319 21.096C100.775 21.096 100.359 20.9573 100.071 20.68C99.7934 20.4027 99.6388 20.0293 99.6068 19.56C99.2761 20.04 98.8548 20.4187 98.3428 20.696C97.8414 20.9627 97.3081 21.096 96.7428 21.096C95.9321 21.096 95.2974 20.8507 94.8388 20.36C94.3908 19.8693 94.1668 19.208 94.1668 18.376C94.1668 17.7893 94.2574 17.2293 94.4388 16.696C94.6308 16.152 94.8974 15.672 95.2388 15.256C95.5801 14.8293 95.9854 14.4933 96.4548 14.248C96.9241 14.0027 97.4468 13.88 98.0228 13.88C99.1001 13.88 99.7988 14.3227 100.119 15.208L100.327 14.056H101.463L100.663 18.632C100.588 19.0907 100.609 19.464 100.727 19.752C100.855 20.0293 101.116 20.168 101.511 20.168C101.852 20.168 102.156 20.0507 102.423 19.816C102.689 19.5707 102.913 19.2507 103.095 18.856C103.276 18.4507 103.409 18.0187 103.495 17.56C103.591 17.0907 103.639 16.6373 103.639 16.2C103.639 14.8027 103.201 13.704 102.327 12.904C101.463 12.104 100.268 11.704 98.7428 11.704C97.7721 11.704 96.8761 11.8853 96.0548 12.248C95.2441 12.6107 94.5348 13.112 93.9268 13.752C93.3188 14.392 92.8441 15.1333 92.5028 15.976C92.1721 16.8187 92.0068 17.7307 92.0068 18.712C92.0068 19.672 92.2041 20.488 92.5988 21.16C92.9934 21.832 93.5534 22.344 94.2788 22.696C95.0041 23.048 95.8681 23.224 96.8708 23.224C97.3294 23.224 97.7881 23.176 98.2468 23.08C98.7054 22.9947 99.1321 22.8613 99.5268 22.68L99.7508 23.592C98.7908 23.9867 97.7508 24.184 96.6308 24.184ZM97.1428 20.072C97.6014 20.072 98.0228 19.9493 98.4068 19.704C98.7908 19.4587 99.1054 19.1227 99.3508 18.696C99.5961 18.2587 99.7454 17.7573 99.7988 17.192C99.8734 16.5627 99.7614 16.024 99.4628 15.576C99.1748 15.128 98.7054 14.904 98.0548 14.904C97.5108 14.904 97.0361 15.064 96.6308 15.384C96.2361 15.6933 95.9321 16.0987 95.7188 16.6C95.5054 17.1013 95.3988 17.624 95.3988 18.168C95.3988 18.744 95.5428 19.208 95.8308 19.56C96.1294 19.9013 96.5668 20.072 97.1428 20.072ZM110.594 21.192C109.837 21.192 109.165 21.0213 108.578 20.68C107.991 20.328 107.527 19.8427 107.186 19.224C106.855 18.6053 106.69 17.8747 106.69 17.032C106.69 16.2 106.855 15.4747 107.186 14.856C107.517 14.2267 107.975 13.7413 108.562 13.4C109.159 13.048 109.847 12.872 110.626 12.872C111.394 12.872 112.055 13.048 112.61 13.4C113.175 13.7413 113.607 14.1947 113.906 14.76C114.205 15.3253 114.354 15.9333 114.354 16.584C114.354 16.7013 114.349 16.8187 114.338 16.936C114.338 17.0533 114.338 17.1867 114.338 17.336H108.018C108.05 17.944 108.189 18.4507 108.434 18.856C108.69 19.2507 109.005 19.5493 109.378 19.752C109.762 19.9547 110.167 20.056 110.594 20.056C111.149 20.056 111.613 19.928 111.986 19.672C112.359 19.416 112.631 19.0693 112.802 18.632H114.13C113.917 19.368 113.506 19.9813 112.898 20.472C112.301 20.952 111.533 21.192 110.594 21.192ZM110.594 14.008C109.954 14.008 109.383 14.2053 108.882 14.6C108.391 14.984 108.109 15.5493 108.034 16.296H113.026C112.994 15.5813 112.749 15.0213 112.29 14.616C111.831 14.2107 111.266 14.008 110.594 14.008ZM116.567 21V14.2H115.367V13.064H116.567V11.688C116.567 10.92 116.759 10.36 117.143 10.008C117.527 9.656 118.087 9.48 118.823 9.48H119.623V10.632H119.031C118.626 10.632 118.338 10.7173 118.167 10.888C117.997 11.048 117.911 11.3253 117.911 11.72V13.064H119.863V14.2H117.911V21H116.567ZM124.767 21.192C124.02 21.192 123.348 21.0213 122.751 20.68C122.154 20.3387 121.679 19.8587 121.327 19.24C120.986 18.6107 120.815 17.8747 120.815 17.032C120.815 16.1893 120.991 15.4587 121.343 14.84C121.695 14.2107 122.17 13.7253 122.767 13.384C123.375 13.0427 124.052 12.872 124.799 12.872C125.546 12.872 126.218 13.0427 126.815 13.384C127.412 13.7253 127.882 14.2107 128.223 14.84C128.575 15.4587 128.751 16.1893 128.751 17.032C128.751 17.8747 128.575 18.6107 128.223 19.24C127.871 19.8587 127.391 20.3387 126.783 20.68C126.186 21.0213 125.514 21.192 124.767 21.192ZM124.767 20.04C125.226 20.04 125.652 19.928 126.047 19.704C126.442 19.48 126.762 19.144 127.007 18.696C127.252 18.248 127.375 17.6933 127.375 17.032C127.375 16.3707 127.252 15.816 127.007 15.368C126.772 14.92 126.458 14.584 126.063 14.36C125.668 14.136 125.247 14.024 124.799 14.024C124.34 14.024 123.914 14.136 123.519 14.36C123.124 14.584 122.804 14.92 122.559 15.368C122.314 15.816 122.191 16.3707 122.191 17.032C122.191 17.6933 122.314 18.248 122.559 18.696C122.804 19.144 123.119 19.48 123.503 19.704C123.898 19.928 124.319 20.04 124.767 20.04ZM134.236 21.192C133.489 21.192 132.817 21.0213 132.22 20.68C131.622 20.3387 131.148 19.8587 130.796 19.24C130.454 18.6107 130.284 17.8747 130.284 17.032C130.284 16.1893 130.46 15.4587 130.812 14.84C131.164 14.2107 131.638 13.7253 132.236 13.384C132.844 13.0427 133.521 12.872 134.268 12.872C135.014 12.872 135.686 13.0427 136.284 13.384C136.881 13.7253 137.35 14.2107 137.692 14.84C138.044 15.4587 138.22 16.1893 138.22 17.032C138.22 17.8747 138.044 18.6107 137.692 19.24C137.34 19.8587 136.86 20.3387 136.252 20.68C135.654 21.0213 134.982 21.192 134.236 21.192ZM134.236 20.04C134.694 20.04 135.121 19.928 135.516 19.704C135.91 19.48 136.23 19.144 136.476 18.696C136.721 18.248 136.844 17.6933 136.844 17.032C136.844 16.3707 136.721 15.816 136.476 15.368C136.241 14.92 135.926 14.584 135.532 14.36C135.137 14.136 134.716 14.024 134.268 14.024C133.809 14.024 133.382 14.136 132.988 14.36C132.593 14.584 132.273 14.92 132.028 15.368C131.782 15.816 131.66 16.3707 131.66 17.032C131.66 17.6933 131.782 18.248 132.028 18.696C132.273 19.144 132.588 19.48 132.972 19.704C133.366 19.928 133.788 20.04 134.236 20.04ZM143.688 21.192C142.899 21.192 142.206 21.0107 141.608 20.648C141.022 20.2853 140.563 19.7893 140.232 19.16C139.912 18.5307 139.752 17.816 139.752 17.016C139.752 16.216 139.918 15.5067 140.248 14.888C140.579 14.2587 141.038 13.768 141.624 13.416C142.211 13.0533 142.904 12.872 143.704 12.872C144.355 12.872 144.931 13.0053 145.432 13.272C145.934 13.5387 146.323 13.912 146.6 14.392V9.48H147.944V21H146.728L146.6 19.688C146.344 20.072 145.976 20.4187 145.496 20.728C145.016 21.0373 144.414 21.192 143.688 21.192ZM143.832 20.024C144.366 20.024 144.835 19.9013 145.24 19.656C145.656 19.4 145.976 19.048 146.2 18.6C146.435 18.152 146.552 17.6293 146.552 17.032C146.552 16.4347 146.435 15.912 146.2 15.464C145.976 15.016 145.656 14.6693 145.24 14.424C144.835 14.168 144.366 14.04 143.832 14.04C143.31 14.04 142.84 14.168 142.424 14.424C142.019 14.6693 141.699 15.016 141.464 15.464C141.24 15.912 141.128 16.4347 141.128 17.032C141.128 17.6293 141.24 18.152 141.464 18.6C141.699 19.048 142.019 19.4 142.424 19.656C142.84 19.9013 143.31 20.024 143.832 20.024ZM150.599 21.08C150.333 21.08 150.109 20.9947 149.927 20.824C149.757 20.6427 149.671 20.424 149.671 20.168C149.671 19.912 149.757 19.6987 149.927 19.528C150.109 19.3467 150.333 19.256 150.599 19.256C150.855 19.256 151.069 19.3467 151.239 19.528C151.421 19.6987 151.511 19.912 151.511 20.168C151.511 20.424 151.421 20.6427 151.239 20.824C151.069 20.9947 150.855 21.08 150.599 21.08ZM156.908 21.192C156.151 21.192 155.468 21.0213 154.86 20.68C154.263 20.328 153.788 19.8427 153.436 19.224C153.095 18.5947 152.924 17.864 152.924 17.032C152.924 16.2 153.095 15.4747 153.436 14.856C153.788 14.2267 154.263 13.7413 154.86 13.4C155.468 13.048 156.151 12.872 156.908 12.872C157.847 12.872 158.636 13.1173 159.276 13.608C159.927 14.0987 160.338 14.7547 160.508 15.576H159.132C159.026 15.0853 158.764 14.7067 158.348 14.44C157.932 14.1627 157.447 14.024 156.892 14.024C156.444 14.024 156.023 14.136 155.628 14.36C155.234 14.584 154.914 14.92 154.668 15.368C154.423 15.816 154.3 16.3707 154.3 17.032C154.3 17.6933 154.423 18.248 154.668 18.696C154.914 19.144 155.234 19.4853 155.628 19.72C156.023 19.944 156.444 20.056 156.892 20.056C157.447 20.056 157.932 19.9227 158.348 19.656C158.764 19.3787 159.026 18.9893 159.132 18.488H160.508C160.348 19.288 159.943 19.9387 159.292 20.44C158.642 20.9413 157.847 21.192 156.908 21.192ZM166.001 21.192C165.255 21.192 164.583 21.0213 163.985 20.68C163.388 20.3387 162.913 19.8587 162.561 19.24C162.22 18.6107 162.049 17.8747 162.049 17.032C162.049 16.1893 162.225 15.4587 162.577 14.84C162.929 14.2107 163.404 13.7253 164.001 13.384C164.609 13.0427 165.287 12.872 166.033 12.872C166.78 12.872 167.452 13.0427 168.049 13.384C168.647 13.7253 169.116 14.2107 169.457 14.84C169.809 15.4587 169.985 16.1893 169.985 17.032C169.985 17.8747 169.809 18.6107 169.457 19.24C169.105 19.8587 168.625 20.3387 168.017 20.68C167.42 21.0213 166.748 21.192 166.001 21.192ZM166.001 20.04C166.46 20.04 166.887 19.928 167.281 19.704C167.676 19.48 167.996 19.144 168.241 18.696C168.487 18.248 168.609 17.6933 168.609 17.032C168.609 16.3707 168.487 15.816 168.241 15.368C168.007 14.92 167.692 14.584 167.297 14.36C166.903 14.136 166.481 14.024 166.033 14.024C165.575 14.024 165.148 14.136 164.753 14.36C164.359 14.584 164.039 14.92 163.793 15.368C163.548 15.816 163.425 16.3707 163.425 17.032C163.425 17.6933 163.548 18.248 163.793 18.696C164.039 19.144 164.353 19.48 164.737 19.704C165.132 19.928 165.553 20.04 166.001 20.04ZM171.854 21V13.064H173.07L173.166 14.216C173.422 13.7893 173.763 13.4587 174.19 13.224C174.617 12.9893 175.097 12.872 175.63 12.872C176.259 12.872 176.798 13 177.246 13.256C177.705 13.512 178.057 13.9013 178.302 14.424C178.579 13.944 178.958 13.5653 179.438 13.288C179.929 13.0107 180.457 12.872 181.022 12.872C181.971 12.872 182.729 13.16 183.294 13.736C183.859 14.3013 184.142 15.176 184.142 16.36V21H182.814V16.504C182.814 15.6827 182.649 15.064 182.318 14.648C181.987 14.232 181.513 14.024 180.894 14.024C180.254 14.024 179.721 14.2747 179.294 14.776C178.878 15.2667 178.67 15.9707 178.67 16.888V21H177.326V16.504C177.326 15.6827 177.161 15.064 176.83 14.648C176.499 14.232 176.025 14.024 175.406 14.024C174.777 14.024 174.249 14.2747 173.822 14.776C173.406 15.2667 173.198 15.9707 173.198 16.888V21H171.854Z" fill="#37383D"/>
<path d="M17.9026 12.8511L13.4593 16.4641C12.6198 17.1301 11.4387 17.1301 10.5992 16.4641L6.11841 12.8511" stroke="#363853" stroke-width="1.5" stroke-linecap="round" stroke-linejoin="round"/>
<path fill-rule="evenodd" clip-rule="evenodd" d="M16.9089 25C19.9502 25.0084 22 22.5095 22 19.4384V12.57C22 9.49883 19.9502 7 16.9089 7H7.09114C4.04979 7 2 9.49883 2 12.57V19.4384C2 22.5095 4.04979 25.0084 7.09114 25H16.9089Z" stroke="#363853" stroke-width="1.5" stroke-linecap="round" stroke-linejoin="round"/>
</svg>
