<svg width="30" height="30" viewBox="0 0 30 30" fill="none" xmlns="http://www.w3.org/2000/svg">
<path d="M5.75084 21.5904L6.11049 22.4466C6.36416 22.3425 6.62836 22.2656 6.89857 22.217L6.73094 21.3049C6.3949 21.3653 6.06634 21.461 5.75084 21.5904Z" fill="url(#paint0_linear_0_399)"/>
<path d="M3.28835 23.8901L4.1321 24.294C4.4241 23.6986 4.8683 23.1889 5.42075 22.8153L4.89165 22.0503C4.20429 22.5152 3.65164 23.1493 3.28835 23.8901Z" fill="url(#paint1_linear_0_399)"/>
<path d="M29.0625 23.6292C29.063 22.8313 28.7655 22.0614 28.2268 21.467L27.5283 22.085C27.8054 22.3906 27.9952 22.7637 28.0781 23.1659H24.8437C24.7666 23.1659 24.6906 23.1848 24.6226 23.2207C24.5545 23.2567 24.4966 23.3088 24.4537 23.3722L22.7179 25.9458H21.5625V24.5559C21.5635 23.696 21.9095 22.8717 22.5247 22.2637C23.1398 21.6557 23.9738 21.3137 24.8437 21.3127H25.7812C26.2422 21.3119 26.6931 21.4462 27.0769 21.6985L27.596 20.9269C27.1912 20.6606 26.7313 20.4871 26.25 20.4192V18.9962C26.25 18.8733 26.2006 18.7554 26.1127 18.6685C26.0248 18.5817 25.9056 18.5328 25.7812 18.5328C25.2841 18.5323 24.8076 18.3369 24.456 17.9894C24.1045 17.642 23.9068 17.1709 23.9062 16.6796V14.8264H25.3125C25.4368 14.8264 25.556 14.7776 25.644 14.6907C25.7319 14.6038 25.7812 14.4859 25.7812 14.3631V11.1199C25.7812 10.997 25.7319 10.8792 25.644 10.7923C25.556 10.7054 25.4368 10.6566 25.3125 10.6566H24.4857C24.2899 10.6569 24.0949 10.6834 23.9062 10.7355V10.1933C23.9063 10.088 23.8701 9.98591 23.8035 9.90372L22.2698 8.00879C22.4708 7.67383 22.543 7.2786 22.4734 6.89532C22.4038 6.51204 22.197 6.16632 21.8907 5.92133C21.5845 5.67635 21.1993 5.54848 20.8055 5.56108C20.4118 5.57368 20.0357 5.72591 19.7461 5.98996C19.4566 6.254 19.2728 6.61222 19.2284 6.99915C19.184 7.38607 19.282 7.77586 19.5044 8.09728C19.7269 8.41869 20.0589 8.65026 20.4398 8.74966C20.8207 8.84907 21.2251 8.80967 21.5791 8.63866L22.9687 10.3558V10.9404L20.908 10.2615C20.773 10.2155 20.6311 10.1924 20.4883 10.1933H16.6219L14.3965 7.62708C14.5827 7.49923 14.7348 7.32875 14.8399 7.1302C14.945 6.93164 14.9999 6.71091 15 6.48682V6.30984L15.6784 5.97458C15.7378 5.9452 15.7903 5.90365 15.8322 5.85271C15.8742 5.80177 15.9047 5.74258 15.9218 5.67909C15.9388 5.6156 15.942 5.54925 15.9312 5.48444C15.9203 5.41963 15.8956 5.35785 15.8587 5.30319L15.0888 4.16171C15.1957 4.14132 15.2921 4.08478 15.3614 4.0018C15.4308 3.91883 15.4687 3.81459 15.4687 3.70697C15.4679 2.96997 15.1713 2.26339 14.644 1.74225C14.1168 1.22111 13.4019 0.927967 12.6562 0.927124C11.7735 0.927124 10.9562 1.17772 10.3482 1.84169C10.0848 2.12983 9.88532 2.46923 9.76248 2.83809C9.63965 3.20696 9.59622 3.59713 9.63498 3.98357L9.73529 4.97459C9.77749 5.40188 9.98412 5.79682 10.3125 6.07784V14.8264C10.3122 15.1519 10.3993 15.4716 10.5647 15.753H9.84375C9.68404 15.7529 9.52551 15.7799 9.375 15.8327V9.72998C9.37458 9.36148 9.22629 9.00819 8.96266 8.74761C8.69902 8.48704 8.34158 8.34047 7.96875 8.34006H2.34375C1.97092 8.34047 1.61348 8.48704 1.34984 8.74761C1.08621 9.00819 0.937919 9.36148 0.9375 9.72998V12.0465H1.875V11.1199H8.4375V15.753H1.875V12.9731H0.9375V16.7562C0.937396 16.9733 1.01442 17.1834 1.15511 17.3501C1.29581 17.5167 1.49125 17.6292 1.7073 17.6679L6.09375 18.4562V19.5434C5.69633 19.6344 5.30824 19.7614 4.93441 19.9228H2.34375C2.21943 19.9228 2.1002 19.9716 2.01229 20.0585C1.92439 20.1454 1.875 20.2632 1.875 20.3861V22.5852C1.26253 23.6017 0.938666 24.7626 0.9375 25.9458C0.9375 26.0687 0.986886 26.1865 1.07479 26.2734C1.1627 26.3603 1.28193 26.4091 1.40625 26.4091H3.55494C3.83507 27.0935 4.31562 27.6796 4.93497 28.0923C5.55433 28.5051 6.28428 28.7255 7.03125 28.7255C7.77822 28.7255 8.50817 28.5051 9.12753 28.0923C9.74688 27.6796 10.2274 27.0935 10.5076 26.4091H18.3891C18.7156 26.4089 19.0385 26.3414 19.3371 26.2109C19.6358 26.0803 19.9036 25.8896 20.1234 25.651L20.625 25.1055V26.4091C20.625 26.532 20.6744 26.6498 20.7623 26.7367C20.8502 26.8236 20.9694 26.8724 21.0937 26.8724H22.065C22.4778 27.579 23.1149 28.1312 23.8775 28.4434C24.6402 28.7556 25.4857 28.8103 26.2831 28.5992C27.0804 28.388 27.785 27.9227 28.2875 27.2754C28.7901 26.6281 29.0625 25.835 29.0625 25.0192C29.0629 24.6643 29.0114 24.3113 28.9098 23.9709C28.9579 23.9276 28.9964 23.8749 29.0227 23.816C29.049 23.7572 29.0625 23.6936 29.0625 23.6292ZM20.1562 7.18179C20.1562 7.04434 20.1975 6.90997 20.2747 6.79569C20.352 6.6814 20.4618 6.59233 20.5903 6.53973C20.7188 6.48712 20.8602 6.47336 20.9965 6.50018C21.1329 6.52699 21.2582 6.59318 21.3566 6.69037C21.4549 6.78757 21.5219 6.9114 21.549 7.04621C21.5761 7.18102 21.5622 7.32075 21.509 7.44774C21.4558 7.57473 21.3656 7.68326 21.25 7.75963C21.1344 7.83599 20.9984 7.87675 20.8594 7.87675C20.673 7.87655 20.4942 7.80327 20.3624 7.67298C20.2306 7.54269 20.1565 7.36604 20.1562 7.18179ZM13.4502 23.6292C12.9911 23.6287 12.551 23.4482 12.2264 23.1274C11.9018 22.8066 11.7193 22.3716 11.7187 21.9178C11.7187 21.463 11.8351 21.0375 12.1418 20.6876C12.4151 20.3765 12.7925 20.173 13.2051 20.1142C13.7031 20.044 14.1589 19.7985 14.4886 19.4229C14.8183 19.0473 14.9999 18.5668 15 18.0695C15.0001 18.0087 14.988 17.9484 14.9644 17.8921C14.9408 17.8359 14.9062 17.7848 14.8626 17.7418C14.9423 17.5771 14.9883 17.3986 14.998 17.2163C15.0078 17.034 14.9811 16.8516 14.9194 16.6796H16.1925L14.1355 21.9656C14.0858 22.0929 14.061 22.2284 14.0625 22.3648V23.6292H13.4502ZM15 22.7026H17.3437C17.4443 22.7027 17.5421 22.7347 17.6228 22.794C17.7035 22.8532 17.7628 22.9365 17.792 23.0316C17.8211 23.1267 17.8185 23.2286 17.7846 23.3221C17.7507 23.4157 17.6873 23.496 17.6037 23.5512C17.4859 23.6022 17.3587 23.6288 17.2301 23.6292H15V22.7026ZM18.6376 22.6215C18.5444 22.406 18.3976 22.2171 18.211 22.0725C18.0243 21.9278 17.8037 21.832 17.5697 21.794L19.511 17.1746C19.6835 16.764 19.7508 16.3178 19.707 15.8753C19.6633 15.4329 19.5097 15.008 19.26 14.6382C19.0103 14.2685 18.6722 13.9654 18.2755 13.7557C17.8789 13.5461 17.4361 13.4364 16.9863 13.4365H15V12.7018L15.1373 12.8375C15.1808 12.8805 15.2325 12.9146 15.2894 12.9379C15.3462 12.9612 15.4072 12.9731 15.4687 12.9731H20.2369C20.1618 13.1828 20.1387 13.4072 20.1695 13.6274C20.2004 13.8477 20.2843 14.0575 20.4142 14.239C20.5441 14.4206 20.7161 14.5687 20.916 14.6709C21.1158 14.7731 21.3375 14.8264 21.5625 14.8264H21.5638C21.2582 15.2268 21.0932 15.7148 21.0937 16.2163V19.8104C21.093 20.056 20.9944 20.2914 20.8191 20.4656L18.6376 22.6215ZM21.5625 13.8998C21.4698 13.8998 21.3792 13.8726 21.3021 13.8217C21.225 13.7708 21.1649 13.6984 21.1294 13.6138C21.094 13.5291 21.0847 13.4359 21.1028 13.3461C21.1208 13.2562 21.1655 13.1736 21.231 13.1088C21.2966 13.044 21.3801 12.9999 21.4711 12.982C21.562 12.9642 21.6562 12.9733 21.7419 13.0084C21.8275 13.0435 21.9007 13.1029 21.9522 13.179C22.0038 13.2552 22.0312 13.3448 22.0312 13.4365C22.0311 13.5593 21.9817 13.677 21.8938 13.7639C21.8059 13.8508 21.6868 13.8996 21.5625 13.8998ZM24.8437 11.5832V13.8998H23.9062V11.7275C24.0845 11.6331 24.2835 11.5836 24.4857 11.5832H24.8437ZM22.9687 13.4365C22.9688 13.2141 22.9149 12.9949 22.8115 12.7974C22.7081 12.5999 22.5582 12.4298 22.3745 12.3014C22.1908 12.1731 21.9786 12.0901 21.7557 12.0597C21.5329 12.0292 21.3058 12.052 21.0937 12.1262V11.2994L22.9687 11.9171V13.4365ZM16.4062 11.1199H20.1562V12.0465H15.6629L12.9877 9.40237L12.3248 10.0576L14.0625 11.7751V13.4365H11.25V7.87675H13.3781L16.0504 10.9582C16.0944 11.0089 16.149 11.0496 16.2104 11.0775C16.2718 11.1055 16.3386 11.1199 16.4062 11.1199ZM11.0433 2.46345C11.4718 1.99546 12.0405 1.85374 12.6562 1.85374C13.0718 1.85426 13.4755 1.99098 13.804 2.24249C14.1326 2.494 14.3675 2.8461 14.472 3.24367H12.6562C12.5319 3.24367 12.4127 3.29248 12.3248 3.37937C12.2369 3.46625 12.1875 3.5841 12.1875 3.70697V4.80733C12.1868 5.00001 12.1114 5.1851 11.9768 5.32448C11.8422 5.46386 11.6586 5.54692 11.4639 5.55657C11.2692 5.56622 11.0782 5.50172 10.9302 5.37634C10.7821 5.25097 10.6884 5.07427 10.6682 4.88262L10.5679 3.8916C10.5404 3.63385 10.5686 3.37328 10.6505 3.12709C10.7325 2.8809 10.8664 2.65471 11.0433 2.46345ZM11.4258 6.48682C11.8763 6.48636 12.3082 6.30927 12.6268 5.9944C12.9454 5.67954 13.1245 5.25262 13.125 4.80733V4.17028H14.0625C14.0625 4.26177 14.0899 4.3512 14.1412 4.4273L14.7842 5.38068L14.3213 5.60932C14.2435 5.64782 14.1781 5.70696 14.1324 5.78011C14.0867 5.85326 14.0625 5.93754 14.0625 6.02352V6.48682C14.0624 6.60966 14.0129 6.72742 13.9251 6.81428C13.8372 6.90114 13.718 6.94999 13.5937 6.95013H11.25V6.47773C11.3084 6.48371 11.3671 6.48675 11.4258 6.48682ZM11.25 14.8264V14.3631H16.9863C17.2819 14.3631 17.5728 14.4352 17.8334 14.5729C18.094 14.7107 18.3162 14.9099 18.4803 15.1528C18.6443 15.3958 18.7452 15.675 18.7739 15.9657C18.8027 16.2564 18.7584 16.5497 18.6451 16.8194L16.5621 21.776H15.2137L17.3125 16.3826C17.3398 16.3124 17.3494 16.2367 17.3405 16.1621C17.3316 16.0874 17.3045 16.016 17.2614 15.954C17.2183 15.892 17.1607 15.8413 17.0933 15.8063C17.026 15.7713 16.9511 15.753 16.875 15.753H12.1875C11.9389 15.7527 11.7007 15.655 11.5249 15.4813C11.3492 15.3076 11.2503 15.072 11.25 14.8264ZM9.84375 16.6796H13.5937C13.7181 16.6796 13.8373 16.7284 13.9252 16.8153C14.0131 16.9022 14.0625 17.02 14.0625 17.1429C14.0625 17.2658 14.0131 17.3836 13.9252 17.4705C13.8373 17.5574 13.7181 17.6062 13.5937 17.6062H9.84375C9.71943 17.6062 9.6002 17.5574 9.51229 17.4705C9.42439 17.3836 9.375 17.2658 9.375 17.1429C9.375 17.02 9.42439 16.9022 9.51229 16.8153C9.6002 16.7284 9.71943 16.6796 9.84375 16.6796ZM1.875 10.1933V9.72998C1.87514 9.60715 1.92457 9.48938 2.01245 9.40253C2.10033 9.31567 2.21947 9.26681 2.34375 9.26667H7.96875C8.09303 9.26681 8.21217 9.31567 8.30005 9.40253C8.38793 9.48938 8.43736 9.60715 8.4375 9.72998V10.1933H1.875ZM1.875 16.6796H8.4375V17.6062H6.60475L1.875 16.7562V16.6796ZM3.39199 20.8494C3.18852 21.0127 2.99502 21.1877 2.8125 21.3736V20.8494H3.39199ZM7.03125 27.799C6.53808 27.7968 6.05404 27.6675 5.62697 27.4237C5.1999 27.1799 4.8446 26.8302 4.59621 26.4091H5.79223C6.13429 26.7076 6.57491 26.8724 7.03125 26.8724C7.48759 26.8724 7.92821 26.7076 8.27027 26.4091H9.46629C9.2179 26.8302 8.8626 27.1799 8.43553 27.4237C8.00846 27.6675 7.52441 27.7968 7.03125 27.799ZM19.4297 25.0278C19.2978 25.171 19.1371 25.2854 18.9579 25.3636C18.7787 25.4419 18.585 25.4824 18.3891 25.4825H1.89439C1.9952 24.2729 2.48787 23.1277 3.29929 22.2168C4.11071 21.3058 5.19764 20.6777 6.39879 20.4257C6.51996 20.3996 6.64358 20.3864 6.76758 20.3861H9.84375V19.4595H7.03125V18.5328H13.9629C13.8835 18.709 13.7601 18.8624 13.6043 18.9786C13.4485 19.0948 13.2655 19.17 13.0723 19.1972C12.4364 19.2876 11.8547 19.6012 11.4334 20.0805C10.9798 20.5968 10.7812 21.2426 10.7812 21.9179C10.7808 22.5457 11.008 23.1528 11.4216 23.6292H7.5V24.5559H17.2301C17.7266 24.5522 18.2022 24.3575 18.5559 24.013L21.482 21.1208C21.8325 20.7725 22.0298 20.3016 22.0312 19.8104V16.2163C22.0316 15.9289 22.1219 15.6487 22.2897 15.4141C22.4576 15.1795 22.6948 15.0019 22.9687 14.9058V16.6796C22.9696 17.3363 23.2053 17.9716 23.6342 18.4733C24.063 18.9749 24.6575 19.3105 25.3125 19.4208V20.3861C25.0215 20.3861 24.7237 20.3687 24.4344 20.4061C23.5575 20.492 22.7297 20.8467 22.0667 21.4204C21.4037 21.9941 20.9387 22.7583 20.7367 23.6061L19.4297 25.0278ZM25.0946 24.0925H25.1184L25.6842 24.6518C25.7825 24.7494 25.8378 24.8814 25.8381 25.0192C25.8381 25.1219 25.8073 25.2224 25.7495 25.3078C25.6918 25.3932 25.6097 25.4598 25.5136 25.4991C25.4176 25.5385 25.3119 25.5487 25.21 25.5287C25.108 25.5086 25.0143 25.4592 24.9408 25.3865L24.5094 24.9601L25.0946 24.0925ZM25.3125 27.799C24.9063 27.7977 24.5052 27.71 24.1364 27.5418C23.7676 27.3736 23.4398 27.1288 23.1753 26.8242C23.2495 26.7884 23.3128 26.7339 23.3587 26.6661L23.7652 26.0638C23.9909 26.391 24.3167 26.638 24.6949 26.7688C25.0731 26.8995 25.4837 26.907 25.8665 26.7901C26.2493 26.6733 26.5841 26.4382 26.8219 26.1195C27.0596 25.8008 27.1878 25.4151 27.1875 25.0192C27.1882 24.7446 27.1263 24.4734 27.0065 24.2257C26.9846 24.1802 26.9606 24.136 26.9352 24.0925H27.9647C28.1144 24.5119 28.1601 24.9606 28.0981 25.401C28.0361 25.8414 27.8682 26.2607 27.6084 26.6237C27.3487 26.9868 27.0046 27.283 26.6051 27.4874C26.2056 27.6919 25.7624 27.7988 25.3125 27.799Z" fill="url(#paint2_linear_0_399)"/>
<path d="M3.75 12.046H2.8125V14.8259H3.75V12.046Z" fill="url(#paint3_linear_0_399)"/>
<defs>
<linearGradient id="paint0_linear_0_399" x1="5.75084" y1="21.8377" x2="6.87107" y2="21.8427" gradientUnits="userSpaceOnUse">
<stop stop-color="#47C2FF"/>
<stop offset="1" stop-color="#1CB4FF" stop-opacity="0.71"/>
</linearGradient>
<linearGradient id="paint1_linear_0_399" x1="3.28835" y1="23.0973" x2="5.36964" y2="23.1062" gradientUnits="userSpaceOnUse">
<stop stop-color="#47C2FF"/>
<stop offset="1" stop-color="#1CB4FF" stop-opacity="0.71"/>
</linearGradient>
<linearGradient id="paint2_linear_0_399" x1="0.9375" y1="13.8997" x2="28.3884" y2="14.0237" gradientUnits="userSpaceOnUse">
<stop stop-color="#47C2FF"/>
<stop offset="1" stop-color="#1CB4FF" stop-opacity="0.71"/>
</linearGradient>
<linearGradient id="paint3_linear_0_399" x1="2.8125" y1="13.3433" x2="3.72755" y2="13.3447" gradientUnits="userSpaceOnUse">
<stop stop-color="#47C2FF"/>
<stop offset="1" stop-color="#1CB4FF" stop-opacity="0.71"/>
</linearGradient>
</defs>
</svg>
