<svg width="16" height="16" viewBox="0 0 16 16" fill="none" xmlns="http://www.w3.org/2000/svg">
<path d="M9.75 14.3001C9.50495 14.3001 9.27875 14.1616 9.16825 13.9406L7.23905 10.0822C7.1331 9.87034 7.1513 9.61684 7.28585 9.42119L10.4 5.20009L6.17825 8.31359C5.9826 8.44879 5.7291 8.46569 5.5172 8.36039L1.65945 6.43184C1.42805 6.31549 1.287 6.07304 1.3013 5.81434C1.31495 5.55564 1.482 5.32944 1.7251 5.24039L14.0751 0.690388C14.3124 0.603938 14.5795 0.660488 14.7596 0.840538C14.939 1.01929 14.9975 1.28709 14.9097 1.52499L10.3597 13.875C10.27 14.1181 10.0445 14.2851 9.78575 14.2988C9.77405 14.2994 9.7617 14.3001 9.75 14.3001Z" fill="white"/>
</svg>
