<svg width="120" height="20" viewBox="0 0 120 20" fill="none" xmlns="http://www.w3.org/2000/svg">
<path d="M109.665 2.56461L111.752 6.24989C111.906 6.51689 112.2 6.70231 112.538 6.74351L117.227 7.34344C117.5 7.37723 117.749 7.50414 117.917 7.6978C118.083 7.88898 118.154 8.13126 118.114 8.36942C118.081 8.5672 117.975 8.75014 117.813 8.89024L114.415 11.7836C114.167 11.9855 114.054 12.2846 114.114 12.5772L114.951 16.6448C115.04 17.136 114.67 17.5991 114.114 17.6922C113.886 17.7244 113.651 17.6906 113.445 17.5983L109.263 15.6839C108.952 15.5463 108.586 15.5463 108.275 15.6839L104.093 17.5983C103.579 17.8381 102.943 17.6749 102.657 17.2299C102.551 17.0527 102.513 16.8508 102.548 16.6539L103.384 12.5854C103.444 12.2937 103.331 11.9929 103.083 11.791L99.6861 8.8993C99.2819 8.55648 99.2697 7.99199 99.6589 7.63681C99.6673 7.6294 99.6767 7.62116 99.6861 7.61292C99.8473 7.4687 100.059 7.37723 100.288 7.35333L104.977 6.75258C105.314 6.71055 105.608 6.52678 105.762 6.25813L107.775 2.56461C107.954 2.24817 108.325 2.05121 108.728 2.05945H108.854C109.204 2.09654 109.508 2.2869 109.665 2.56461Z" fill="#FAC412"/>
<path d="M108.742 15.5813C108.561 15.5863 108.384 15.6291 108.225 15.7058L104.063 17.6158C103.554 17.8293 102.944 17.6636 102.659 17.2358C102.553 17.061 102.515 16.8607 102.55 16.6645L103.382 12.6046C103.438 12.3095 103.325 12.0095 103.081 11.8017L99.6822 8.91079C99.2788 8.56375 99.2713 7.99413 99.6663 7.63884C99.6719 7.6339 99.6766 7.62978 99.6822 7.62566C99.8432 7.48552 100.051 7.39319 100.275 7.36434L104.967 6.75763C105.307 6.71971 105.602 6.53341 105.752 6.26303L107.791 2.52302C107.985 2.22131 108.357 2.04161 108.75 2.06057C108.742 2.3054 108.742 15.4148 108.742 15.5813Z" fill="#FAC412"/>
<path d="M85.8134 2.56461L87.6688 6.24989C87.8055 6.51689 88.0664 6.70231 88.3673 6.74351L92.5348 7.34344C92.7782 7.37723 92.9991 7.50414 93.1483 7.6978C93.2958 7.88898 93.3592 8.13126 93.3233 8.36942C93.2942 8.5672 93.2 8.75014 93.0558 8.89024L90.036 11.7836C89.8151 11.9855 89.7151 12.2846 89.7684 12.5772L90.5119 16.6448C90.5911 17.136 90.2618 17.5991 89.7684 17.6922C89.565 17.7244 89.3567 17.6906 89.1733 17.5983L85.4558 15.6839C85.1799 15.5463 84.854 15.5463 84.5781 15.6839L80.8607 17.5983C80.4039 17.8381 79.8379 17.6749 79.5837 17.2299C79.4895 17.0527 79.4562 16.8508 79.487 16.6539L80.2305 12.5854C80.2839 12.2937 80.183 11.9929 79.963 11.791L76.9432 8.8993C76.5839 8.55648 76.5731 7.99199 76.919 7.63681C76.9265 7.6294 76.9348 7.62116 76.9432 7.61292C77.0865 7.4687 77.2749 7.37723 77.4783 7.35333L81.6458 6.75258C81.9459 6.71055 82.2068 6.52678 82.3443 6.25813L84.133 2.56461C84.2922 2.24817 84.6223 2.05121 84.9807 2.05945H85.0924C85.4033 2.09654 85.6742 2.2869 85.8134 2.56461Z" fill="#FAC412"/>
<path d="M84.9931 15.5813C84.8317 15.5863 84.6745 15.6291 84.533 15.7058L80.8337 17.6158C80.3811 17.8293 79.8394 17.6636 79.5857 17.2358C79.4916 17.061 79.4575 16.8607 79.4892 16.6645L80.228 12.6046C80.2779 12.3095 80.1781 12.0095 79.9609 11.8017L76.9398 8.91079C76.5811 8.56375 76.5745 7.99413 76.9256 7.63884C76.9306 7.6339 76.9348 7.62978 76.9398 7.62566C77.0829 7.48552 77.2676 7.39319 77.4664 7.36434L81.6375 6.75763C81.9395 6.71971 82.2016 6.53341 82.3348 6.26303L84.1478 2.52302C84.32 2.22131 84.6503 2.04161 84.9998 2.06057C84.9931 2.3054 84.9931 15.4148 84.9931 15.5813Z" fill="#FAC412"/>
<path d="M60.8134 2.56461L62.6688 6.24989C62.8055 6.51689 63.0664 6.70231 63.3673 6.74351L67.5348 7.34344C67.7782 7.37723 67.9991 7.50414 68.1483 7.6978C68.2958 7.88898 68.3592 8.13126 68.3233 8.36942C68.2942 8.5672 68.2 8.75014 68.0558 8.89024L65.036 11.7836C64.8151 11.9855 64.7151 12.2846 64.7684 12.5772L65.5119 16.6448C65.5911 17.136 65.2618 17.5991 64.7684 17.6922C64.565 17.7244 64.3567 17.6906 64.1733 17.5983L60.4558 15.6839C60.1799 15.5463 59.854 15.5463 59.5781 15.6839L55.8607 17.5983C55.4039 17.8381 54.8379 17.6749 54.5837 17.2299C54.4895 17.0527 54.4562 16.8508 54.487 16.6539L55.2305 12.5854C55.2839 12.2937 55.183 11.9929 54.963 11.791L51.9432 8.8993C51.5839 8.55648 51.5731 7.99199 51.919 7.63681C51.9265 7.6294 51.9348 7.62116 51.9432 7.61292C52.0865 7.4687 52.2749 7.37723 52.4783 7.35333L56.6458 6.75258C56.9459 6.71055 57.2068 6.52678 57.3443 6.25813L59.133 2.56461C59.2922 2.24817 59.6223 2.05121 59.9807 2.05945H60.0924C60.4033 2.09654 60.6742 2.2869 60.8134 2.56461Z" fill="#FAC412"/>
<path d="M59.9931 15.5813C59.8317 15.5863 59.6745 15.6291 59.533 15.7058L55.8337 17.6158C55.3811 17.8293 54.8394 17.6636 54.5857 17.2358C54.4916 17.061 54.4575 16.8607 54.4892 16.6645L55.228 12.6046C55.2779 12.3095 55.1781 12.0095 54.9609 11.8017L51.9398 8.91079C51.5811 8.56375 51.5745 7.99413 51.9256 7.63884C51.9306 7.6339 51.9348 7.62978 51.9398 7.62566C52.0829 7.48552 52.2676 7.39319 52.4664 7.36434L56.6375 6.75763C56.9395 6.71971 57.2016 6.53341 57.3348 6.26303L59.1478 2.52302C59.32 2.22131 59.6503 2.04161 59.9998 2.06057C59.9931 2.3054 59.9931 15.4148 59.9931 15.5813Z" fill="#FAC412"/>
<path d="M35.8134 2.56461L37.6688 6.24989C37.8055 6.51689 38.0664 6.70231 38.3673 6.74351L42.5348 7.34344C42.7782 7.37723 42.9991 7.50414 43.1483 7.6978C43.2958 7.88898 43.3592 8.13126 43.3233 8.36942C43.2942 8.5672 43.2 8.75014 43.0558 8.89024L40.036 11.7836C39.8151 11.9855 39.7151 12.2846 39.7684 12.5772L40.5119 16.6448C40.5911 17.136 40.2618 17.5991 39.7684 17.6922C39.565 17.7244 39.3567 17.6906 39.1733 17.5983L35.4558 15.6839C35.1799 15.5463 34.854 15.5463 34.5781 15.6839L30.8607 17.5983C30.4039 17.8381 29.8379 17.6749 29.5837 17.2299C29.4895 17.0527 29.4562 16.8508 29.487 16.6539L30.2305 12.5854C30.2839 12.2937 30.183 11.9929 29.963 11.791L26.9432 8.8993C26.5839 8.55648 26.5731 7.99199 26.919 7.63681C26.9265 7.6294 26.9348 7.62116 26.9432 7.61292C27.0865 7.4687 27.2749 7.37723 27.4783 7.35333L31.6458 6.75258C31.9459 6.71055 32.2068 6.52678 32.3443 6.25813L34.133 2.56461C34.2922 2.24817 34.6223 2.05121 34.9807 2.05945H35.0924C35.4033 2.09654 35.6742 2.2869 35.8134 2.56461Z" fill="#FAC412"/>
<path d="M34.9931 15.5813C34.8317 15.5863 34.6745 15.6291 34.533 15.7058L30.8337 17.6158C30.3811 17.8293 29.8394 17.6636 29.5857 17.2358C29.4916 17.061 29.4575 16.8607 29.4892 16.6645L30.228 12.6046C30.2779 12.3095 30.1781 12.0095 29.9609 11.8017L26.9398 8.91079C26.5811 8.56375 26.5745 7.99413 26.9256 7.63884C26.9306 7.6339 26.9348 7.62978 26.9398 7.62566C27.0829 7.48552 27.2676 7.39319 27.4664 7.36434L31.6375 6.75763C31.9395 6.71971 32.2016 6.53341 32.3348 6.26303L34.1478 2.52302C34.32 2.22131 34.6503 2.04161 34.9998 2.06057C34.9931 2.3054 34.9931 15.4148 34.9931 15.5813Z" fill="#FAC412"/>
<path d="M12.1651 2.56461L14.2524 6.24989C14.4062 6.51689 14.6997 6.70231 15.0382 6.74351L19.7267 7.34344C20.0005 7.37723 20.249 7.50414 20.4169 7.6978C20.5828 7.88898 20.6541 8.13126 20.6138 8.36942C20.581 8.5672 20.475 8.75014 20.3128 8.89024L16.9155 11.7836C16.667 11.9855 16.5545 12.2846 16.6145 12.5772L17.4509 16.6448C17.54 17.136 17.1696 17.5991 16.6145 17.6922C16.3857 17.7244 16.1513 17.6906 15.945 17.5983L11.7628 15.6839C11.4524 15.5463 11.0858 15.5463 10.7754 15.6839L6.59328 17.5983C6.07942 17.8381 5.44272 17.6749 5.15672 17.2299C5.05076 17.0527 5.01325 16.8508 5.04795 16.6539L5.88438 12.5854C5.94439 12.2937 5.83093 11.9929 5.58337 11.791L2.18608 8.8993C1.78193 8.55648 1.76974 7.99199 2.15889 7.63681C2.16733 7.6294 2.17671 7.62116 2.18608 7.61292C2.34737 7.4687 2.55929 7.37723 2.78809 7.35333L7.47659 6.75258C7.81417 6.71055 8.10767 6.52678 8.26239 6.25813L10.2747 2.56461C10.4538 2.24817 10.8251 2.05121 11.2283 2.05945H11.354C11.7038 2.09654 12.0085 2.2869 12.1651 2.56461Z" fill="#FAC412"/>
<path d="M11.2423 15.5813C11.0607 15.5863 10.8838 15.6291 10.7247 15.7058L6.56299 17.6158C6.05378 17.8293 5.44441 17.6636 5.15891 17.2358C5.05314 17.061 5.01476 16.8607 5.05033 16.6645L5.88155 12.6046C5.93771 12.3095 5.82538 12.0095 5.58107 11.8017L2.18226 8.91079C1.77882 8.56375 1.77133 7.99413 2.16635 7.63884C2.17196 7.6339 2.17664 7.62978 2.18226 7.62566C2.34326 7.48552 2.55106 7.39319 2.77478 7.36434L7.46722 6.75763C7.80701 6.71971 8.10187 6.53341 8.25163 6.26303L10.2913 2.52302C10.4851 2.22131 10.8567 2.04161 11.2498 2.06057C11.2423 2.3054 11.2423 15.4148 11.2423 15.5813Z" fill="#FAC412"/>
</svg>
